:FULLY-SPECIFIED
:FORCE-ALL-JOINTS-BE-3DOF
:DEGREES
951
root 1.09558 15.273 32.7416 6.85239 -3.20462 364.389
lfemur 7.14034 1.05438 4.64709
ltibia 0.109592 0 0
lfoot -28.6575 -13.5723 0
ltoes -32.3637 0 0
rfemur -31.9947 -16.1635 -6.64737
rtibia 49.5891 0 0
rfoot -21.2818 4.42575 0
rtoes -42.2406 0 0
lowerback -2.38866 -0.79536 1.1357
upperback -1.21696 -1.07875 -6.64239
thorax -0.0671506 -0.574274 -7.59368
lowerneck -6.28156 1.06554 5.19287
upperneck 0.637505 0.950044 3.13007
head 1.26241 0.552783 0.130341
lclavicle -4.13187e-15 -2.15823e-14 0
lhumerus -59.1784 -43.5911 112.598
lradius 55.4041 0 0
lwrist 26.1377 0 0
lhand 39.164 24.2238 0
lfingers 7.12502 0 0
lthumb 61.6948 36.0635 0
rclavicle -4.13187e-15 -2.15823e-14 0
rhumerus 3.41817 -29.1072 0.944556
rradius 29.069 0 0
rwrist -11.5311 0 0
rhand -34.6987 -50.3425 0
rfingers 7.12502 0 0
rthumb -7.85274 -800.147 0
952
root 1.07655 15.2629 32.7359 6.8395 -3.31298 364.279
lfemur 7.26808 1.15256 4.83202
ltibia 0.054796 0 0
lfoot -28.7409 -13.2913 0
ltoes -32.6332 0 0
rfemur -32.1831 -16.2844 -6.4085
rtibia 49.8056 0 0
rfoot -21.5197 4.53507 0
rtoes -42.1301 0 0
lowerback -2.39699 -0.878762 1.23707
upperback -1.15342 -1.18954 -6.56866
thorax -0.0125225 -0.62813 -7.57583
lowerneck -6.19933 1.20905 5.39296
upperneck 0.532066 1.13682 3.0825
head 1.21668 0.642026 0.0873378
lclavicle -2.21502e-15 -1.79474e-14 0
lhumerus -59.1698 -43.526 112.619
lradius 55.3547 0 0
lwrist 26.3291 0 0
lhand 38.8878 24.1426 0
lfingers 7.12502 0 0
lthumb 61.4648 36.2701 0
rclavicle -2.21502e-15 -1.79474e-14 0
rhumerus 3.44046 -27.6808 1.71439
rradius 29.0477 0 0
rwrist -10.5165 0 0
rhand -33.5693 -50.3407 0
rfingers 7.12502 0 0
rthumb -6.76317 -800.195 0
953
root 1.05753 15.2529 32.7303 6.8266 -3.42135 364.17
lfemur 7.39583 1.25075 5.01695
ltibia 0 0 0
lfoot -28.8242 -13.0103 0
ltoes -32.9027 0 0
rfemur -32.3714 -16.4053 -6.16964
rtibia 50.0221 0 0
rfoot -21.7576 4.64439 0
rtoes -42.0196 0 0
lowerback -2.40532 -0.962165 1.33844
upperback -1.08989 -1.30032 -6.49494
thorax 0.0421056 -0.681987 -7.55798
lowerneck -6.1171 1.35257 5.59306
upperneck 0.426627 1.3236 3.03492
head 1.17095 0.731268 0.0443343
lclavicle -2.98177e-16 -1.43125e-14 0
lhumerus -59.1613 -43.4609 112.641
lradius 55.3053 0 0
lwrist 26.5206 0 0
lhand 38.6117 24.0614 0
lfingers 7.12502 0 0
lthumb 61.2347 36.4768 0
rclavicle -2.98177e-16 -1.43125e-14 0
rhumerus 3.46276 -26.2543 2.48423
rradius 29.0263 0 0
rwrist -9.50186 0 0
rhand -32.44 -50.3388 0
rfingers 7.12502 0 0
rthumb -5.6736 -800.243 0
954
root 1.05148 15.2423 32.7206 6.73605 -3.68646 364.178
lfemur 7.60436 1.44736 5.03714
ltibia 2.72619e-15 0 0
lfoot -28.9181 -12.9296 0
ltoes -32.9521 0 0
rfemur -32.567 -16.3786 -6.12984
rtibia 50.199 0 0
rfoot -21.9179 4.83455 0
rtoes -41.9611 0 0
lowerback -2.3013 -0.941347 1.25165
upperback -1.08835 -1.27356 -6.46093
thorax -0.00838891 -0.66897 -7.46845
lowerneck -6.08933 1.35591 5.62031
upperneck 0.43478 1.32606 3.10377
head 1.16841 0.733668 0.0611598
lclavicle -3.62072e-15 -2.3627e-14 0
lhumerus -59.1707 -43.6174 112.863
lradius 55.2926 0 0
lwrist 26.1855 0 0
lhand 38.6519 23.9112 0
lfingers 7.12502 0 0
lthumb 61.2685 36.2868 0
rclavicle -3.62072e-15 -2.3627e-14 0
rhumerus 3.73382 -26.2191 2.29793
rradius 28.9768 0 0
rwrist -10.1033 0 0
rhand -32.5193 -50.0346 0
rfingers 7.12502 0 0
rthumb -5.75018 -799.937 0
955
root 1.04543 15.2316 32.711 6.6455 -3.95158 364.187
lfemur 7.81289 1.64396 5.05732
ltibia 5.45237e-15 0 0
lfoot -29.0121 -12.8489 0
ltoes -33.0016 0 0
rfemur -32.7626 -16.3519 -6.09005
rtibia 50.3759 0 0
rfoot -22.0782 5.0247 0
rtoes -41.9025 0 0
lowerback -2.19728 -0.92053 1.16487
upperback -1.08681 -1.24681 -6.42691
thorax -0.0588834 -0.655953 -7.37892
lowerneck -6.06156 1.35926 5.64757
upperneck 0.442934 1.32852 3.17262
head 1.16587 0.736068 0.0779854
lclavicle -6.94327e-15 -3.29415e-14 0
lhumerus -59.1802 -43.7738 113.085
lradius 55.2799 0 0
lwrist 25.8505 0 0
lhand 38.6921 23.761 0
lfingers 7.12502 0 0
lthumb 61.3024 36.0968 0
rclavicle -6.94327e-15 -3.29415e-14 0
rhumerus 4.00487 -26.1838 2.11163
rradius 28.9274 0 0
rwrist -10.7047 0 0
rhand -32.5987 -49.7304 0
rfingers 7.12502 0 0
rthumb -5.82676 -799.63 0
956
root 1.03938 15.221 32.7013 6.55495 -4.21669 364.195
lfemur 8.02142 1.84057 5.07751
ltibia 8.17856e-15 0 0
lfoot -29.106 -12.7682 0
ltoes -33.051 0 0
rfemur -32.9582 -16.3252 -6.05025
rtibia 50.5528 0 0
rfoot -22.2385 5.21486 0
rtoes -41.844 0 0
lowerback -2.09326 -0.899712 1.07808
upperback -1.08527 -1.22005 -6.3929
thorax -0.109378 -0.642936 -7.28939
lowerneck -6.03379 1.3626 5.67482
upperneck 0.451087 1.33098 3.24147
head 1.16333 0.738468 0.0948109
lclavicle -1.02658e-14 -4.2256e-14 0
lhumerus -59.1896 -43.9303 113.307
lradius 55.2672 0 0
lwrist 25.5154 0 0
lhand 38.7323 23.6108 0
lfingers 7.12502 0 0
lthumb 61.3362 35.9068 0
rclavicle -1.02658e-14 -4.2256e-14 0
rhumerus 4.27593 -26.1486 1.92533
rradius 28.8779 0 0
rwrist -11.3061 0 0
rhand -32.678 -49.4262 0
rfingers 7.12502 0 0
rthumb -5.90334 -799.324 0
957
root 1.03333 15.2104 32.6917 6.46441 -4.48181 364.204
lfemur 8.22996 2.03718 5.09769
ltibia 1.09047e-14 0 0
lfoot -29.2 -12.6875 0
ltoes -33.1005 0 0
rfemur -33.1537 -16.2986 -6.01045
rtibia 50.7296 0 0
rfoot -22.3989 5.40501 0
rtoes -41.7855 0 0
lowerback -1.98925 -0.878895 0.991293
upperback -1.08374 -1.19329 -6.35888
thorax -0.159872 -0.629918 -7.19985
lowerneck -6.00603 1.36594 5.70208
upperneck 0.45924 1.33344 3.31033
head 1.1608 0.740868 0.111636
lclavicle -1.35884e-14 -5.15704e-14 0
lhumerus -59.1991 -44.0868 113.529
lradius 55.2544 0 0
lwrist 25.1804 0 0
lhand 38.7726 23.4607 0
lfingers 7.12502 0 0
lthumb 61.37 35.7168 0
rclavicle -1.35884e-14 -5.15704e-14 0
rhumerus 4.54699 -26.1133 1.73903
rradius 28.8285 0 0
rwrist -11.9075 0 0
rhand -32.7573 -49.1219 0
rfingers 7.12502 0 0
rthumb -5.97992 -799.017 0
958
root 1.02728 15.1998 32.682 6.37386 -4.74692 364.212
lfemur 8.43849 2.23379 5.11788
ltibia 1.36309e-14 0 0
lfoot -29.2939 -12.6068 0
ltoes -33.1499 0 0
rfemur -33.3493 -16.2719 -5.97065
rtibia 50.9065 0 0
rfoot -22.5592 5.59517 0
rtoes -41.727 0 0
lowerback -1.88523 -0.858077 0.904506
upperback -1.0822 -1.16653 -6.32487
thorax -0.210367 -0.616901 -7.11032
lowerneck -5.97826 1.36928 5.72933
upperneck 0.467393 1.3359 3.37918
head 1.15826 0.743268 0.128462
lclavicle -1.69109e-14 -6.08849e-14 0
lhumerus -59.2085 -44.2433 113.751
lradius 55.2417 0 0
lwrist 24.8453 0 0
lhand 38.8128 23.3105 0
lfingers 7.12502 0 0
lthumb 61.4038 35.5268 0
rclavicle -1.69109e-14 -6.08849e-14 0
rhumerus 4.81805 -26.0781 1.55273
rradius 28.779 0 0
rwrist -12.5089 0 0
rhand -32.8366 -48.8177 0
rfingers 7.12502 0 0
rthumb -6.0565 -798.711 0
959
root 1.02123 15.1891 32.6724 6.28331 -5.01204 364.221
lfemur 8.64702 2.43039 5.13806
ltibia 1.63571e-14 0 0
lfoot -29.3879 -12.5261 0
ltoes -33.1994 0 0
rfemur -33.5449 -16.2452 -5.93086
rtibia 51.0834 0 0
rfoot -22.7195 5.78532 0
rtoes -41.6684 0 0
lowerback -1.78121 -0.83726 0.817719
upperback -1.08066 -1.13978 -6.29085
thorax -0.260861 -0.603884 -7.02079
lowerneck -5.95049 1.37263 5.75659
upperneck 0.475547 1.33836 3.44803
head 1.15572 0.745668 0.145287
lclavicle -2.02335e-14 -7.01994e-14 0
lhumerus -59.218 -44.3997 113.973
lradius 55.229 0 0
lwrist 24.5103 0 0
lhand 38.853 23.1603 0
lfingers 7.12502 0 0
lthumb 61.4377 35.3368 0
rclavicle -2.02335e-14 -7.01994e-14 0
rhumerus 5.0891 -26.0428 1.36643
rradius 28.7296 0 0
rwrist -13.1103 0 0
rhand -32.916 -48.5135 0
rfingers 7.12502 0 0
rthumb -6.13308 -798.404 0
960
root 1.01518 15.1785 32.6627 6.19276 -5.27715 364.229
lfemur 8.85555 2.627 5.15825
ltibia 1.90833e-14 0 0
lfoot -29.4818 -12.4454 0
ltoes -33.2488 0 0
rfemur -33.7405 -16.2185 -5.89106
rtibia 51.2603 0 0
rfoot -22.8798 5.97548 0
rtoes -41.6099 0 0
lowerback -1.67719 -0.816442 0.730932
upperback -1.07912 -1.11302 -6.25684
thorax -0.311356 -0.590867 -6.93126
lowerneck -5.92272 1.37597 5.78384
upperneck 0.4837 1.34082 3.51688
head 1.15318 0.748068 0.162113
lclavicle -2.3556e-14 -7.95139e-14 0
lhumerus -59.2274 -44.5562 114.195
lradius 55.2163 0 0
lwrist 24.1752 0 0
lhand 38.8932 23.0101 0
lfingers 7.12502 0 0
lthumb 61.4715 35.1468 0
rclavicle -2.3556e-14 -7.95139e-14 0
rhumerus 5.36016 -26.0076 1.18013
rradius 28.6801 0 0
rwrist -13.7117 0 0
rhand -32.9953 -48.2093 0
rfingers 7.12502 0 0
rthumb -6.20966 -798.098 0
